<svg width="2500" height="2345" viewBox="0 0 2500 2345" fill="none" xmlns="http://www.w3.org/2000/svg">
<g filter="url(#filter0_d_12_14)">
<mask id="mask0_12_14" style="mask-type:luminance" maskUnits="userSpaceOnUse" x="138" y="124" width="2163" height="2027">
<path d="M138 124H2300.09V2151H138V124Z" fill="white"/>
</mask>
<g mask="url(#mask0_12_14)">
<path d="M395.461 1686.32C343.087 1709.36 291.241 1733.58 239.964 1758.97L208.83 1794.26C197.155 1826.51 199.144 1877.11 194.214 1911.27L208.571 1942.4L227.078 1935.48C227.078 1935.48 234.602 1906.68 282.6 1858.51L326.448 1820.98C326.448 1820.98 483.242 1727.84 505.468 1717.29C473.988 1708.46 426.855 1695.49 395.461 1686.32Z" fill="#FF5A5A"/>
<path d="M504.344 1713.65C438.357 1769.35 350.144 1798.49 288.135 1859.29L272.828 1881.6C380.067 1815.36 489.901 1922.68 587.282 1951.91C610.632 1958.83 589.53 1945.86 587.282 1929.86C586.33 1923.29 590.655 1912.05 600.254 1895.96L600.6 1871.74L533.662 1854.45L545.337 1793.82L579.239 1769.35C585.984 1757.93 619.021 1740.55 626.805 1729.57L554.85 1712.53L504.344 1713.65Z" fill="#9D3737"/>
<path d="M1857.72 1705.09V1626.13L1854.26 1564.73L1839.56 1506.44L1825.73 1467.09L1804.45 1431.63L1787.41 1400.41L1771.5 1439.5L1742.53 1487.67L1720.04 1516.04L1690.98 1539.48L1636.76 1569.23H1585.3L1536.09 1545.87L1492.5 1521.49L1461.2 1481.44L1451.68 1450.92L1434.21 1347.48L1426.78 1368.93L1399.97 1419.09L1368.49 1464.06L1325.07 1502.72L1290.13 1521.57L1242.91 1534.37L1208.06 1532.99L1111.8 1489.92L1064.41 1431.63L1048.58 1400.41L1009.84 1478.76L965.388 1534.37L896.201 1607.45L828.138 1650.95L768.897 1695.49C771.492 1721.44 779.535 1739.86 793.112 1750.67C827.879 1778.17 850.191 1825.91 882.45 1849.69C923.529 1880.13 961.669 1894.66 998.77 1917.93C1033.71 1939.89 1042.01 1980.45 1072.63 1997.49C1187.39 2061.23 1293.77 2069.19 1321.09 2064.95C1353.7 2071.26 1398.06 2063.65 1430.84 2064.08C1453.59 2058.9 1507.81 2053.88 1536.09 2041.94C1580.89 2023 1652.67 1997.66 1695.65 1969.64C1746.59 1936.43 1779.54 1886.97 1792 1872.26C1804.45 1857.56 1816.64 1829.02 1825.73 1812.85C1836.02 1792.61 1841.21 1772.12 1848.38 1750.58L1857.72 1705V1705.09Z" fill="url(#paint0_linear_12_14)"/>
<path d="M918.254 1617.14C978.879 1707.51 1203.74 1654.15 1203.74 1540.95C1203.74 1540.95 1139.74 1526.94 1112.15 1500.04L1050.31 1426.01C1016.33 1492.08 918.254 1567.67 908.135 1600.45C908.135 1600.45 914.622 1610.82 918.254 1617.14ZM1636.76 1576.23C1632.61 1667.9 1777.9 1710.71 1847.61 1668.08C1851.67 1581.94 1840.69 1490.35 1787.67 1421.08C1770.55 1440.28 1768.82 1481.79 1724.54 1521.49C1698.67 1544.63 1669 1563.15 1636.85 1576.23H1636.76Z" fill="#F28773"/>
<path d="M1346 1534.37C1359.75 1582.11 1432.74 1594.39 1484.37 1603.04C1440.61 1617.57 1390.97 1610.56 1350.84 1589.2C1328.36 1579.52 1308.64 1542.33 1346 1534.37Z" fill="#564341"/>
<path d="M764.659 1721.78C754.454 1705.09 610.546 1732.51 544.645 1812.16C512.646 1845.89 557.272 1863.62 589.79 1858.86C686.046 1834.38 672.814 1776.61 814.214 1792.27C815.944 1792.61 789.394 1762.43 764.659 1721.78Z" fill="url(#paint1_linear_12_14)"/>
<path d="M829.695 1808.01C763.276 1782.84 660.706 1809.56 608.557 1878.49C590.136 1902.88 561.683 1974.92 593.595 1967.83C674.025 1950.01 732.055 1950.27 742.347 1940.76C779.967 1906.08 806.517 1881.17 903.292 1877.63C891.704 1862.06 854.429 1817.26 829.781 1807.92L829.695 1808.01Z" fill="url(#paint2_linear_12_14)"/>
<path d="M956.48 1893.37C922.997 1880.49 886.566 1877.31 851.358 1884.18C816.15 1891.04 783.586 1907.69 757.395 1932.2C635.712 2042.46 652.317 2110.09 652.317 2110.09L665.03 2131.8C698.327 2144.86 841.889 2103.78 881.585 2092.36C957.258 2070.74 1038.21 2062.79 1113.36 2039C1113.36 2039 979.917 1910.14 956.48 1893.37Z" fill="url(#paint3_linear_12_14)"/>
<path d="M1562.38 2046.96C1658.81 2054.57 1752.56 2085.19 1842.59 2119L1864.9 2126.53L1883.06 2123.15C1908.14 2083.02 1868.36 2041.6 1843.11 2012.28C1819.41 1987.63 1779.89 1976.56 1747.11 1970.16C1678.36 1963.85 1621.02 2018.25 1562.38 2046.96Z" fill="url(#paint4_linear_12_14)"/>
<path d="M1701.19 1976.3C1759.13 1959.09 1823.13 1978.9 1865.59 2026.46C1865.59 2026.46 1898.63 2046.87 1908.06 2040.82C1917.05 2035.11 1906.41 1995.16 1901.48 1985.82C1871.91 1929.43 1848.38 1894.84 1790.18 1878.32C1761.21 1910.58 1733.36 1946.64 1701.19 1976.3Z" fill="url(#paint5_linear_12_14)"/>
<path d="M1802.46 1874.6C1883.58 1900.28 1861.27 1929.26 1935.3 1946.55C1939.88 1947.59 1940.32 1926.66 1940.32 1921.91C1940.32 1899.25 1877.87 1846.41 1843.89 1824.35C1830.05 1815.36 1796.15 1872.52 1802.46 1874.51V1874.6Z" fill="url(#paint6_linear_12_14)"/>
<path d="M1491.29 943.777C1495.44 970.846 1486.97 1048.68 1486.97 1048.68C1715.29 988.662 2026.89 650.165 1565.93 715.287C1614.53 644.717 1713.82 606.664 1751 525.629L1749.01 515.684C1542.49 525.543 1335.54 632.35 1207.8 796.236L1197.6 826.246L1211.43 860.839C1305.44 889.725 1407.66 881.422 1505.48 889.206C1505.48 889.206 1488.61 935.734 1491.29 943.777Z" fill="url(#paint7_linear_12_14)"/>
<path d="M1444.77 1312.97C1404.46 1448.32 1553.99 1477.99 1655.7 1428.52C1884.02 1247.07 1822.87 823.911 1481.35 1075.84C1462.06 1106.8 1466.91 1189.39 1466.13 1193.45C1460.51 1223.29 1446.75 1306.57 1444.85 1312.97H1444.77Z" fill="url(#paint8_linear_12_14)"/>
<path d="M1061.3 1340.56C1069.95 1403.87 1191.46 1416.67 1254.76 1388.82C1402.91 1339.18 1447.45 1050.67 1388.38 964.706C1383.02 956.922 1309.25 946.285 1279.24 943.344C1195.35 935.215 1095.8 1013.48 1052.65 1124.27C1041.32 1153.5 1056.97 1190.69 1060 1220.78C1064.15 1262.73 1057.15 1310.12 1061.3 1340.56Z" fill="url(#paint9_linear_12_14)"/>
<path d="M1058.18 1367.37C1058.18 1367.37 1283.39 1523.74 1394.26 1227.44C1422.54 1151.77 1409.83 1038.82 1410.69 988.316C1508.85 1035.88 1434.91 1306.23 1427.99 1338.66C1403.43 1452.82 1291.34 1542.16 1197.6 1517.34C1056.54 1480.06 1058.18 1367.37 1058.18 1367.37ZM1444.94 1420.91L1464.48 1428.17C1525.71 1474.01 1613.67 1457.83 1673.51 1417.53C1760.43 1346.96 1768.39 1252.18 1801.68 1154.62L1807.74 1161.2C1821.14 1262.04 1796.84 1365.3 1761.04 1459.39C1681.9 1617.92 1472.53 1604.51 1444.94 1420.91Z" fill="white"/>
<path d="M1490.08 1194.41C1475.12 1229.86 1469.76 1274.66 1480.31 1312.02C1505.39 1369.97 1574.58 1374.98 1614.62 1329.23C1729.64 1206.08 1591.61 998.002 1490.08 1194.32V1194.41ZM1291 1193.37C1312.71 940.577 1048.33 1078.17 1115.18 1260.48C1172.52 1352.33 1270.85 1269.39 1291 1193.37Z" fill="white"/>
<path d="M1838.18 1857.04C1840.6 1873.39 1851.76 1889.04 1851.76 1889.04L1827.54 1872.26L1811.02 1864.31L1832.3 1829.02L1841.03 1833.35C1841.03 1833.35 1836.19 1843.81 1838.18 1857.04Z" fill="url(#paint10_linear_12_14)"/>
<path d="M1787.59 1942.92C1794.42 1959.01 1816.64 1977.95 1816.64 1977.95L1760.6 1961.08L1732.76 1958.4L1781.27 1904.35C1781.27 1904.35 1780.49 1926.23 1787.59 1942.92Z" fill="url(#paint11_linear_12_14)"/>
<path d="M735.255 2116.75C735.255 2116.75 891.79 2070.05 954.837 2007.09C997.905 1964.02 962.62 1909.8 969.452 1912.82C1012 1931.94 1025.06 1960.3 1050.4 1991.09C1061.99 2005.19 1112.24 2038.23 1112.24 2038.23C1112.24 2038.23 1028.43 2049.81 993.927 2060.54C932.264 2079.56 735.341 2116.75 735.341 2116.75H735.255Z" fill="url(#paint12_linear_12_14)"/>
<path d="M1703.18 2003.98C1709.84 2039.44 1718.4 2049.12 1784.73 2082.68C1786.98 2083.89 1745.64 2069.96 1681.56 2053.97C1659.94 2048.6 1595.33 2038.05 1595.33 2038.05C1595.33 2038.05 1642.03 2019.55 1654.06 2011.76C1668.76 2002.08 1707.33 1985.73 1707.33 1985.73C1707.33 1985.73 1702.57 2000.52 1703.18 2003.89V2003.98Z" fill="url(#paint13_linear_12_14)"/>
<path d="M734.304 1932.11C726.52 1934.45 698.845 1937.3 671.776 1945.6C659.582 1949.41 640.642 1954.68 626.891 1958.49C620.578 1960.22 603.108 1962.21 597.4 1957.62C595.671 1956.15 592.211 1949.41 594.373 1948.97C669.614 1932.89 715.45 1912.39 748.919 1892.15C806.344 1857.56 816.636 1830.32 821.392 1810.08C823.382 1801.43 844.224 1821.07 851.489 1828.59L889.282 1867.94C889.282 1867.94 834.884 1878.32 818.279 1883.07C781.091 1893.8 744.941 1928.82 734.304 1932.11Z" fill="url(#paint14_linear_12_14)"/>
<path d="M538.159 1848.83C607.951 1821.24 677.138 1797.37 751.514 1722.99C756.443 1718.06 770.886 1729.91 772.962 1734.84C782.907 1758.54 801.242 1784.74 789.221 1783.45C715.71 1775.4 670.479 1806.1 637.702 1831.27C614.178 1849.26 531.673 1851.33 538.159 1848.83Z" fill="url(#paint15_linear_12_14)"/>
<path d="M1848.38 1531.35C1852.28 1552.88 1852.28 1613.51 1860.32 1618.09C1999.99 1697.48 2204.87 1690.39 2242.92 1512.92L2263.68 1509.81L2282.36 1488.88C2288.74 1455.06 2293.42 1420.95 2296.37 1386.66L2285.13 1337.19L2263.5 1292.91L2207.81 1229.43L2145.89 1193.63L2080.16 1174.08L2001.29 1166.73L1939.88 1171.57L1869.4 1188.87C1858.16 1195.27 1826.16 1213.52 1817.16 1222.86C1813.44 1243.18 1805.06 1284.26 1800.13 1304.15C1797.96 1317.99 1797.96 1347.14 1791.3 1361.92L1789.66 1391.85L1798.22 1427.31C1817.25 1464.75 1839.3 1488.88 1848.38 1531.35Z" fill="url(#paint16_linear_12_14)"/>
<path d="M1910.39 1644.55C1813.7 1426.27 1924.58 1210.15 2173.91 1213.61C2116.14 1176.07 2068.31 1170.62 2001.29 1166.9L1967.3 1172.09L1942.82 1170.1C1901.66 1181.61 1847.95 1193.37 1816.73 1224.85C1815.43 1244.05 1804.97 1287.2 1799.87 1306.14C1794.68 1320.24 1778.68 1361.84 1779.11 1376.71L1803.84 1434.22C1821.4 1467.95 1830.4 1481.27 1838.7 1518.98L1854.26 1576.92L1861.96 1618L1910.39 1644.64V1644.55Z" fill="url(#paint17_linear_12_14)"/>
<path d="M1990.13 1361.23C1995.06 1352.58 1991.51 1332.95 1977.16 1324.04C1960.73 1313.84 1937.46 1315.4 1927.78 1336.15C1920.17 1352.32 1931.06 1368.5 1946.8 1376.8C1962.72 1385.1 1981.4 1376.63 1990.13 1361.23Z" fill="url(#paint18_linear_12_14)"/>
<path d="M2192.93 1353.28C2179.79 1375.24 2140.87 1391.93 2093.39 1377.06C2038.22 1359.68 1979.06 1305.54 2024.12 1244.57C2043.92 1217.76 2099.19 1218.62 2138.28 1237.99C2166.82 1252.09 2224.07 1301.3 2192.93 1353.28Z" fill="url(#paint19_linear_12_14)"/>
<path d="M1858.76 1405.94C1883.67 1450.92 1898.54 1478.24 1976.55 1478.24C2002.58 1478.24 2008.12 1518.29 2059.14 1560.14C2084.05 1580.73 2133.09 1580.12 2161.89 1562.83C2179.1 1552.53 2185.32 1556.6 2190.6 1559.63C2202.71 1566.54 2204.96 1563.95 2220.78 1562.91C2220.78 1562.91 2239.64 1536.62 2232.28 1518.29C2209.45 1503.5 2189.91 1491.48 2161.63 1492.17L2145.02 1507.74L2132.57 1527.28L2117.43 1536.79L2094.95 1534.8C2073.28 1516.14 2054.35 1494.51 2038.73 1470.55C2004.92 1436.39 1970.41 1444 1927.43 1449.53C1906.93 1436.73 1880.47 1416.93 1858.76 1405.94Z" fill="#ED8870"/>
<path d="M702.391 1703.27C911.076 1643.95 1050.57 1466.22 1092.17 1257.02L1092.6 1215.33L1100.39 1183.77C1095.89 1154.1 1098.31 1109.48 1095.98 1079.82L1120.19 1069.7L1140.95 1065.37L1157.9 1053.52C1167.85 1027.58 1166.55 1029.31 1164.56 1002.07C997.387 667.635 457.73 594.211 246.537 921.464C26.9553 1230.99 222.321 1769.26 644.015 1719.01L702.391 1703.27Z" fill="url(#paint20_linear_12_14)"/>
<path d="M532.365 1518.11C545.251 1450.05 899.746 1407.07 935.378 1291.35C950.945 1174.86 993.322 1161.97 1094.16 1151.51L1094.68 1092.87L1078.85 1078.69C1040.31 1089.9 1001 1098.28 961.236 1103.77C937.54 1104.55 901.044 1104.98 878.039 1110.69L869.65 1144.85C881.066 1168.46 892.828 1253.65 892.828 1253.65C891.149 1269.58 888.55 1285.41 885.044 1301.04C777.286 1384.58 628.707 1390.29 510.138 1454.98L503.306 1475.39L532.365 1518.11Z" fill="#F28773"/>
<path d="M790.345 1671.02C364.673 1708.55 164.896 1156.61 345.214 813.1C345.214 813.1 281.909 862.569 274.298 874.331C189.544 1004.32 144.054 1101.61 157.978 1277.86L181.674 1400.32C195.512 1429.64 222.062 1483.09 222.062 1483.09C289.26 1653.29 497.944 1761.74 676.273 1709.33L719.601 1701.03L790.345 1671.02Z" fill="url(#paint21_linear_12_14)"/>
<path d="M721.418 1135.16C749.438 1168.46 734.477 1210.84 701.699 1251.4C664.857 1296.98 599.908 1301.39 565.661 1269.04C539.629 1244.48 532.105 1191.47 591.174 1141.22C641.161 1098.76 697.894 1106.88 721.418 1135.16Z" fill="url(#paint22_linear_12_14)"/>
<path d="M620.751 893.789C656.469 930.631 669.182 1017.46 579.412 1107.4C514.29 1172.61 388.11 1248.46 301.54 1153.24C238.58 1084.05 303.875 976.381 365.884 921.464C413.796 879.087 548.537 819.154 620.751 893.789Z" fill="url(#paint23_linear_12_14)"/>
<path d="M583.563 1478.76L659.928 1537.14L763.708 1511.89L778.41 1376.11L594.287 1429.04L583.563 1478.76Z" fill="#564341"/>
<path d="M661.139 1528.92L641.766 1630.37L749.092 1589.38L764.919 1502.29L661.139 1528.92Z" fill="#7D7C7D"/>
<path d="M661.139 1528.92L583.563 1478.76L568.947 1557.72L641.766 1630.37L661.139 1528.92Z" fill="#989697"/>
<path d="M710.521 641.863L696.164 712.174L844.311 743.135L862.04 652.328L710.607 641.863H710.521Z" fill="#564341"/>
<path d="M533.489 626.815L1007.16 652.76L1112.93 612.113L1158.76 291.778L1051.09 202.095L952.415 190.852L926.47 212.818L889.023 223.802L849.759 222.764L814.733 222.937L783.859 218.18L758.26 212.646L736.985 206.073L720.12 195.089L702.218 183.674L692.705 166.031L542.829 154.702L573.617 251.39L533.489 626.728V626.815Z" fill="#B6B6B6"/>
<path d="M834.019 357.505L753.935 425.827L828.744 484.463L779.88 564.201L924.827 527.186L866.883 444.854L857.11 425.222L906.146 354.305L879.855 347.387L834.019 357.419V357.505Z" fill="#FFED7E"/>
<path d="M537.64 156.777L446.573 211.089L429.968 314.177L567.477 247.412L537.554 156.777H537.64Z" fill="#B6B6B6"/>
<path d="M575.866 255.022L529.165 625.604L442.768 568.957L407.483 501.414L428.325 321.528L575.866 254.936V255.022ZM691.148 163.263L720.12 194.57L800.031 219.651L877.607 220.688C902.255 213.597 924.567 212.3 942.469 192.841L945.669 177.533C908.049 142.68 847.078 141.815 798.647 139.048L720.639 143.805L691.235 163.263H691.148Z" fill="#979797"/>
<path d="M828.138 125.211C890.406 130.054 943.594 150.723 954.577 176.928L1050.57 189.295C1051.7 189.381 1052.74 189.727 1053.69 190.16C1064.32 194.225 1088.37 211.348 1118.55 234.958C1130.8 244.436 1142.77 254.271 1154.44 264.449C1159.28 268.773 1162.92 272.233 1165.16 274.914C1167.31 277.188 1168.8 279.995 1169.49 283.043C1172 285.378 1173.38 288.837 1172.95 292.47V293.421L1172.6 296.362L1171.39 307.345C1163.7 377.129 1155.34 446.838 1146.31 516.462C1140.52 559.271 1135.5 592.308 1131.35 613.496C1129.27 623.961 1111.46 632.523 1072.89 647.139L1070.29 648.09L1068.56 648.782C1041.15 658.987 1016.5 666.511 1008.37 666.511C999.116 666.511 964.263 664.522 871.466 658.9L860.57 732.152C954.664 764.843 1039.5 820.278 1103.59 894.308L1103.24 893.962L1104.97 895.779C1124.77 915.272 1142.02 937.181 1156.34 960.987C1178.83 945.161 1202.53 934.437 1226.39 930.199C1336.49 910.567 1429.29 948.447 1466.82 1024.98C1469.76 1007.52 1472.53 986.067 1474.78 964.187L1475.03 961.679L1475.29 959.257L1475.55 956.836L1476.07 951.474C1477.37 937.118 1477.37 924.059 1475.55 909.702C1475.29 908.232 1474 906.157 1471.58 903.562L1462.67 902.957L1461.8 902.87C1458.17 902.524 1454.37 902.178 1447.62 901.919L1445.28 901.832C1366.67 898.633 1326.02 896.211 1291.26 891.714L1288.66 891.368L1287.45 891.195L1284.86 890.849L1278.72 889.984C1226.14 882.028 1195.69 869.142 1186.01 844.667C1177.79 823.824 1185.66 799.868 1204.34 772.885C1216.45 755.329 1230.98 739.157 1249.83 720.477C1280.45 690.034 1336.49 646.447 1394.78 609.259C1468.81 562.125 1541.28 527.964 1604.76 513.695C1686.66 495.187 1753.68 491.641 1766.48 517.327C1773.92 532.202 1765.27 548.028 1745.21 570.514C1731.37 586.081 1711.48 604.848 1685.71 627.074C1667.88 642.537 1649.74 657.646 1631.31 672.392L1618.94 682.51L1618.08 683.202L1617.21 683.894L1616.78 684.24L1614.53 685.97L1604.33 694.358L1603.98 694.618L1606.4 694.358C1631.19 691.261 1656.15 689.874 1681.13 690.207L1684.32 690.294C1718.49 691.332 1747.28 696.953 1770.12 708.628C1783.79 715.061 1795.59 724.881 1804.4 737.156C1813.21 749.432 1818.73 763.755 1820.45 778.766C1828.49 838.872 1757.32 921.983 1658.64 982.608C1693.32 983.473 1727.13 992.64 1750.83 1011.23C1780.89 1034.58 1803.62 1066.07 1816.3 1101.96C1826.41 1130.5 1831.5 1160.58 1831.35 1190.86C1930.98 1137.67 2064.16 1139.58 2165.78 1193.28C2281.67 1254.51 2330.7 1367.37 2280.46 1498.91C2278.26 1505.66 2274.15 1511.63 2268.62 1516.08C2263.09 1520.54 2256.38 1523.29 2249.32 1523.99C2249.58 1525.38 2249.75 1526.76 2249.84 1528.23C2249.79 1540.63 2246.42 1552.79 2240.07 1563.43C2228.36 1583.91 2213.99 1602.75 2197.34 1619.47C2131.62 1688.92 2010.28 1703.79 1918.35 1658.56L1909.7 1654.33L1908.49 1653.72L1907.8 1653.37L1907.02 1653.03L1906.33 1652.68L1897.16 1648.27C1888.94 1644.21 1881.85 1640.66 1875.54 1637.03C1876.09 1690.18 1866.4 1742.95 1847 1792.44L1845.7 1795.73L1844.84 1798.32L1842.76 1804.11C1857.69 1810.68 1872.12 1818.34 1885.92 1827.03C1904.22 1839.33 1920.4 1854.51 1933.83 1872C1941.66 1882.55 1948.33 1893.92 1953.72 1905.91C1961.94 1924.93 1963.58 1941.02 1953.55 1953.21C1944.55 1964.11 1930.02 1966.01 1912.55 1962.47C1920.12 1976.16 1926.34 1990.56 1931.15 2005.45C1937.55 2026.9 1935.82 2044.19 1921.2 2055C1915.75 2059.07 1907.97 2059.93 1898.98 2058.55C1914.2 2092.02 1913.33 2124.8 1888.51 2137.08C1875.11 2143.74 1859.28 2141.57 1833.94 2132.75C1829.27 2131.2 1816.99 2126.44 1803.67 2121.25L1802.2 2120.73L1799.52 2119.69L1794.5 2117.79L1793.81 2117.53L1792.34 2116.93L1761.21 2104.99C1734.81 2095.18 1707.76 2087.24 1680.26 2081.21L1664.52 2077.75L1646.53 2074.03C1617.21 2068.24 1592.05 2064.52 1568 2063.22C1551.4 2062.27 1536.18 2062.53 1522.43 2064.08C1520.46 2064.34 1518.46 2064.19 1516.55 2063.65C1456.52 2077.26 1394.97 2083.02 1333.46 2080.78C1269.38 2078.53 1234.96 2075.93 1198.55 2069.1C1188.43 2067.24 1178.39 2064.99 1168.45 2062.35C1136.11 2055.18 1050.66 2066.59 996.349 2083.8C981.805 2088.29 967.092 2092.22 952.242 2095.56L890.147 2109.14L886.688 2109.92L885.736 2110.09L880.807 2111.22L878.818 2111.65L876.828 2112.08C855.035 2116.84 834.106 2121.6 822.863 2124.36C813.753 2126.58 804.672 2128.92 795.62 2131.37L783.945 2134.65L770.973 2138.11C760.324 2140.93 749.596 2143.44 738.801 2145.64C699.537 2153.51 671.603 2153.33 653.788 2140.02C639.345 2129.29 634.156 2112 636.318 2090.29C638.048 2073.42 644.101 2053.27 654.306 2029.4C662.003 2011.42 678.868 1987.29 697.981 1965.23L698.759 1964.28L697.894 1964.45C688.249 1967 678.648 1969.71 669.095 1972.58L666.241 1973.45L665.117 1973.71L644.62 1979.59L644.274 1979.76H644.101L642.718 1980.11L642.285 1980.28L640.729 1980.63L637.702 1981.49L635.972 1981.84L633.464 1982.44C616.686 1986.51 605.184 1987.46 594.2 1984.17C588.202 1982.33 582.778 1978.97 578.447 1974.43C574.116 1969.89 571.024 1964.31 569.466 1958.23C566.007 1957.36 562.115 1956.33 557.791 1954.77C524.062 1943.27 493.015 1926.58 443.719 1895.7C430.574 1887.4 388.37 1874.94 372.111 1872.96C340.631 1869.15 283.898 1884.37 259.855 1900.89C253.155 1909.74 247.224 1919.14 242.126 1929L241.521 1930.29L239.099 1935.14L238.407 1936.61L237.715 1938.08C234.862 1943.96 232.094 1949.58 231.143 1951.05C227.251 1957.54 222.235 1961.43 215.057 1961.77C207.533 1962.12 202.084 1957.71 198.193 1950.88C195.598 1946.38 193.436 1940.41 191.533 1933.06C187.767 1916.48 185.653 1899.56 185.22 1882.56C183.577 1838.19 189.717 1798.32 204.246 1779.47C225.002 1752.66 257.001 1733.63 307.594 1712.96C317.799 1708.81 356.803 1693.76 365.452 1690.22C373.322 1687.02 380.154 1683.99 385.948 1681.22C319.702 1644.03 263.315 1587.82 221.024 1517.77C107.99 1330.62 112.92 1080.51 247.229 897.076C343.571 765.448 499.242 695.656 670.392 698.423C676.706 698.51 682.932 698.769 689.159 699.029L699.537 648.522L598.525 642.468L595.238 642.209C567.218 640.479 547.932 639.441 532.538 638.75C530.376 638.577 528.559 637.885 526.916 636.933C489.728 618.599 448.649 591.443 435.936 578.73C418.639 561.52 397.537 502.971 397.537 481.869C397.537 449.783 405.407 389.158 418.38 312.361L420.109 302.848L420.542 299.994L420.801 298.61L421.233 295.843L422.185 290.308L422.704 287.54L423.223 284.773L423.396 283.735L423.741 281.746C428.066 257.357 432.39 234.18 434.984 220.948L435.244 219.91L437.146 210.829L437.319 210.397L437.406 209.878C439.827 202.354 451.676 194.57 484.972 174.852C500.952 165.344 517.098 156.117 533.403 147.178L536.343 145.534L537.467 144.929C539.37 143.891 541.532 143.459 543.608 143.632H544.905C566.247 144.775 587.58 146.073 608.903 147.523C633.355 149.134 657.801 150.835 682.241 152.626H682.932C686.566 147.361 691.557 143.177 697.375 140.518C705.764 136.194 717.266 132.648 731.277 129.881C758.951 124.346 794.41 122.443 828.138 125.211ZM882.277 1897.08L880.893 1897.17L880.201 1897.26L878.645 1897.43H877.866L876.31 1897.69L872.504 1898.12L869.391 1898.47C858.017 1899.71 846.726 1901.61 835.576 1904.18C817.068 1908.67 783.253 1926.92 760.854 1944.56C731.969 1967.22 692.878 2014.1 681.376 2040.99C663.56 2082.94 660.966 2108.71 671.43 2116.41C680.079 2122.89 701.872 2122.98 733.006 2116.75C747.562 2113.84 761.988 2110.32 776.248 2106.2L787.837 2103C814.716 2095.66 841.829 2089.2 869.131 2083.63L872.591 2082.76L875.964 2082.07L877.693 2081.64L881.153 2080.95L888.417 2079.31L890.147 2078.96C917.389 2072.91 941.691 2067.72 945.496 2066.85C962.793 2062.79 976.371 2059.24 987.441 2055.7C1023.25 2044.89 1059.99 2037.45 1097.19 2033.47C1084.8 2026.51 1073 2018.56 1061.9 2009.69C1050.1 1999.62 1039.48 1988.25 1030.25 1975.78C1022.28 1965.14 1013.61 1955.02 1004.31 1945.52L1003.61 1944.82L1002.75 1944.13C999.834 1941.27 996.804 1938.53 993.668 1935.92C973.665 1919.77 951.731 1906.17 928.373 1895.44H928.546C924.827 1894.32 904.503 1894.92 882.277 1897.08ZM1734.23 1984.52C1715.44 1985.34 1697.1 1990.45 1680.61 1999.48C1679.27 2000.12 1677.84 2000.56 1676.37 2000.78C1665.32 2007.4 1654.01 2013.57 1642.47 2019.29L1639.44 2020.76C1627.59 2026.55 1615.4 2032 1602.86 2036.93C1625.64 2039.9 1648.26 2043.94 1670.66 2049.04L1677.15 2050.33L1678.88 2050.77L1686.4 2052.32C1714.68 2058.38 1741.75 2066.59 1771.15 2077.32C1782.2 2081.44 1793.21 2085.65 1804.19 2089.94L1809.03 2091.76L1811.02 2092.62L1812.41 2093.06C1826.24 2098.42 1839.04 2103.43 1843.54 2104.9C1861.53 2111.13 1871.65 2112.51 1875.37 2110.7C1879.86 2108.45 1881.51 2096.69 1875.54 2079.13C1868.8 2060.64 1857.84 2043.97 1843.54 2030.44L1843.71 2030.61L1843.37 2030.36L1842.33 2029.4C1838.01 2025.17 1833.16 2021.27 1828.15 2017.64C1794.33 1993.25 1763.28 1983.48 1734.23 1984.52ZM1426.34 1405.6C1408.18 1440.97 1385.09 1471.33 1355.95 1496.67L1354.48 1497.96L1353.09 1499.17C1298.95 1547.43 1225.53 1557.98 1158.59 1532.38L1156.6 1531.52C1107.31 1512.06 1068.39 1475.39 1049.19 1430.07C993.668 1539.22 904.763 1630.72 793.285 1683.3L794.15 1698.86C794.15 1711.49 795.275 1721.7 798.561 1733.2C802.729 1749.64 812.675 1764.04 826.582 1773.76C835.527 1779.89 844.024 1786.66 852.008 1794L852.7 1794.34C855.76 1795.77 858.234 1798.22 859.705 1801.26C865.527 1806.88 871.207 1812.65 876.742 1818.56L877.434 1819.25L878.039 1819.85L878.645 1820.46L879.25 1821.07L887.552 1829.71L888.763 1831.01C895.163 1837.58 899.92 1842.25 904.503 1846.49C912.892 1854.02 920.07 1859.12 926.816 1862.23C964.523 1879.27 991.765 1895.87 1012.61 1913.43C1028.17 1926.4 1035.09 1934.36 1053.34 1957.54C1061.36 1968.4 1070.59 1978.32 1080.84 1987.11C1084.56 1990.14 1088.45 1993.17 1092.78 1996.11C1125.3 2018.25 1161.1 2032 1204 2040.13C1238.59 2046.61 1271.8 2049.12 1334.5 2051.37C1438.54 2054.83 1542.06 2035.46 1626.55 1994.29C1720.22 1948.63 1786.81 1878.4 1817.94 1785.87L1818.03 1785.52L1818.2 1785.09C1840.69 1728.25 1849.74 1666.98 1844.62 1606.07C1839.5 1545.16 1820.37 1486.25 1788.71 1433.97C1776.63 1462.6 1760.63 1489.41 1741.14 1513.62C1704.65 1558.24 1659.85 1585.22 1607.01 1587.21C1559.88 1588.94 1493.54 1555.82 1462.93 1509.9C1443.9 1481.36 1434.82 1455.41 1426.34 1405.6ZM1798.48 1889.13L1797.96 1889.99C1781.02 1913.85 1761.34 1935.65 1739.33 1954.94C1773.06 1955.2 1808.52 1967.22 1845.36 1993.69C1851.41 1998.01 1857.12 2002.85 1862.48 2007.87C1871.87 2015.54 1882.33 2021.81 1893.53 2026.46C1898.11 2028.19 1902 2029.4 1904.86 2029.75H1904.77V2029.66C1905.64 2027.24 1905.38 2022.57 1903.21 2014.87L1902.96 2013.84C1897.9 1998.9 1891.44 1984.48 1883.67 1970.77C1877.59 1958.54 1870.04 1947.09 1861.18 1936.69C1856.61 1931.45 1851.76 1926.46 1846.65 1921.73C1832.51 1908.27 1816.23 1897.26 1798.48 1889.13ZM697.375 1821.58C680.151 1829.15 664.286 1839.49 650.415 1852.2C649.451 1853.48 648.282 1854.59 646.955 1855.49C633.008 1869.25 621.28 1885.09 612.189 1902.45L610.892 1904.95L610.546 1905.56L609.94 1906.68L609.335 1907.81C601.811 1922.51 595.844 1937.39 596.363 1942.57C597.227 1951.83 599.303 1954.86 602.849 1955.98C607.346 1957.28 614.697 1956.67 626.632 1953.82L633.464 1952.09L636.837 1951.22L654.393 1946.12L655.344 1945.86L657.333 1945.26L658.371 1945L659.409 1944.65L660.447 1944.39L662.695 1943.79C672.471 1940.96 682.273 1938.22 692.1 1935.57C710.694 1930.73 725.482 1927.53 736.466 1926.4L742.606 1921.39C768.032 1901.32 805.48 1881.17 828.484 1875.55C843.792 1871.74 864.375 1868.98 883.661 1867.33C878.472 1862.58 873.283 1857.39 866.277 1850.12L858.494 1842.08L857.975 1841.48L857.11 1840.61L855.986 1839.4C852.613 1835.94 849.413 1832.48 847.77 1830.92C843.532 1826.6 839.554 1822.71 835.662 1819.08C800.896 1805.5 730.758 1806.62 697.375 1821.58ZM511.695 1726.19L511.609 1726.28C503.373 1731.86 495.07 1737.33 486.701 1742.71L485.318 1743.58C475.173 1750.11 464.996 1756.6 454.789 1763.03L452.627 1764.33L451.849 1764.85L451.416 1765.11L450.897 1765.37C392.953 1793.91 336.134 1828.76 298.773 1860.24C325.064 1852.55 353.949 1848.39 374.878 1850.9C393.905 1853.24 439.136 1866.64 455.567 1876.85C503.479 1906.94 533.403 1922.94 564.969 1933.84L567.736 1934.79C570.936 1916.89 583.304 1891.29 595.844 1872L587.022 1873.91C555.456 1879.96 532.105 1877.28 520.084 1859.03C506.074 1837.76 517.663 1811.64 543.867 1783.01C561.856 1763.38 587.282 1743.06 602.589 1735.1L609.94 1731.38C576.298 1733.54 543.521 1731.81 511.695 1726.19ZM1831.61 1831.36L1831.09 1832.57C1826.13 1843.35 1820.65 1853.89 1814.66 1864.13C1832.9 1872.78 1850.81 1885.41 1866.63 1900.11C1873.98 1906.94 1880.21 1913.34 1885.66 1919.83L1886.52 1920.52C1893.87 1925.14 1901.77 1928.8 1910.05 1931.42C1915.55 1933.24 1921.29 1934.26 1927.08 1934.45C1928.9 1934.45 1930.37 1934.27 1931.24 1933.93L1930.89 1934.01V1931.76L1930.8 1931.25C1930.37 1927.7 1929.07 1922.94 1926.65 1917.58C1922.59 1908.24 1916.19 1897.69 1910.13 1889.47C1898.65 1874.68 1884.87 1861.84 1869.31 1851.42C1861.18 1845.89 1842.5 1836.11 1831.61 1831.36ZM409.299 1693.33L409.126 1693.42C408.434 1694.28 407.569 1694.89 406.531 1695.4C395.962 1701.2 385.044 1706.35 373.841 1710.8C369.603 1712.53 358.619 1716.85 347.117 1721.26L345.906 1721.78L343.485 1722.65C331.983 1727.14 320.653 1731.56 315.983 1733.54C268.85 1752.74 239.445 1770.3 221.803 1793.04C211.425 1806.45 205.976 1842.34 207.446 1881.69C208.052 1899.42 210.127 1915.85 213.068 1927.7C213.587 1929.78 214.192 1931.76 214.797 1933.49L214.97 1934.1L215.143 1933.67L219.295 1925.02L219.9 1923.81L224.829 1914.21C234.382 1897.04 246.031 1881.12 259.509 1866.82C295.054 1828.33 365.711 1782.75 438.876 1746.6L440.865 1745.57L440.519 1745.74H440.606L440.779 1745.57L442.941 1744.27C453.117 1737.9 463.236 1731.44 473.297 1724.9L474.68 1724.03L481.426 1719.71C456.556 1713.28 432.37 1704.44 409.212 1693.33H409.299ZM686.911 1734.15C661.139 1741.07 633.637 1752.14 616.167 1761.31C583.649 1778.17 536.256 1829.89 544.732 1842.86C547.672 1847.36 560.991 1848.91 581.574 1844.93C589.617 1843.38 598.352 1841.13 607.519 1838.36C613.054 1836.63 618.416 1834.9 624.037 1832.91L630.264 1830.67C646.523 1815.72 665.136 1803.57 685.354 1794.69C711.386 1783.01 752.984 1778.26 790.777 1780.76C779.651 1767.41 771.987 1751.52 768.465 1734.5L768.292 1734.41C751.427 1724.2 722.628 1724.64 686.997 1734.06L686.911 1734.15ZM266.601 911.259C138.259 1086.73 133.416 1326.29 241.521 1505.4C293.93 1592.06 368.738 1656.05 456.865 1687.02C474.513 1693.28 492.611 1698.19 511.003 1701.72C512.56 1701.63 514.203 1701.89 515.673 1702.58C595.065 1716.51 681.549 1705.18 771.665 1666.78L774.951 1665.31L781.351 1662.45C989.344 1565.25 1116.04 1325.86 1084.65 1095.47L1069.51 1099.01C1029.56 1108.44 989.949 1112.42 924.394 1115.45C922.838 1115.62 921.454 1115.62 919.551 1115.71L917.13 1115.79H914.881C895.682 1116.48 887.552 1117.52 882.277 1120.2C878.299 1122.28 877.52 1125.39 881.672 1136.2C885.65 1146.58 893.174 1180.74 900.006 1215.51L900.871 1219.83L901.044 1220.96L901.909 1225.02L902.255 1227.01L903.033 1231.08L908.568 1261.6C914.708 1296.46 891.963 1324.48 846.3 1348.09C828.205 1357.33 809.477 1365.28 790.259 1371.87V1374.46L789.999 1376.28C788.98 1386.84 787.914 1397.39 786.799 1407.93C784.254 1432.98 781.487 1458 778.497 1483C775.902 1504.02 773.481 1522.78 771.146 1538.7C766.476 1570.7 762.757 1588.68 758.433 1595.43C753.676 1602.78 731.796 1614.2 704.64 1625.09C674.544 1637.2 651.452 1643.51 640.037 1639.8C629.053 1636.34 611.151 1622.15 592.73 1603.99C573.271 1584.71 560.558 1568.71 559.866 1558.85C559.348 1551.06 562.98 1527.97 569.899 1490.96C572.898 1474.52 576.07 1458.12 579.412 1441.75L581.141 1433.36C549.575 1444 530.116 1453.08 518.787 1462.85C513.338 1467.52 512.733 1470.46 515.155 1475.82C518.354 1483 526.484 1492.26 541.618 1506.44C543.703 1508.66 544.866 1511.59 544.872 1514.64C544.877 1517.69 543.725 1520.62 541.649 1522.85C539.572 1525.08 536.726 1526.44 533.686 1526.65C530.646 1526.87 527.639 1525.92 525.273 1523.99C507.89 1507.74 498.29 1496.75 493.274 1485.77C486.356 1470.55 489.642 1456.19 503.133 1444.6C524.581 1426.18 562.374 1412.26 637.529 1391.5L695.213 1375.68C762.67 1357.08 803.663 1343.24 835.316 1326.81C872.677 1307.44 888.763 1287.64 884.958 1265.84C882.623 1252.7 879.769 1237.3 876.742 1221.91L875.964 1218.02L875.791 1217.06L875.445 1215.08C869.131 1183.42 862.472 1153.15 859.186 1144.76C851.056 1123.49 855.208 1107.23 871.294 1098.93C881.066 1093.74 890.666 1092.62 914.103 1091.84H916.265L918.6 1091.75L923.27 1091.49C987.441 1088.46 1025.84 1084.57 1063.98 1075.66L1082.14 1071.43L1096.5 1067.97L1099.26 1067.36H1099.7L1101.25 1066.93H1101.51C1105.49 1065.72 1110.16 1064.77 1116.04 1063.73C1116.65 1063.73 1116.65 1063.73 1117.17 1063.56C1125.81 1062.17 1129.27 1061.31 1131.7 1059.92L1131.44 1060.1L1132.3 1059.58C1155.22 1044.88 1158.42 1022.39 1144.93 991.343L1144.32 989.873C1132.65 963.755 1110.16 934.523 1086.03 910.74L1085.69 910.394L1085.34 910.048C984.673 793.642 829.695 724.974 670.046 722.379C506.333 719.785 358.101 786.29 266.601 911.259ZM764.746 1695.66L763.189 1696.18L755.579 1699.12C758.645 1699.63 761.677 1700.32 764.659 1701.2C764.64 1699.33 764.64 1697.45 764.659 1695.58L764.746 1695.66ZM1833.42 1215.08L1831 1216.55C1827.91 1278.26 1817.82 1339.42 1800.9 1398.85L1802.12 1400.41C1844.41 1462.79 1869.39 1535.28 1874.5 1610.48C1883.84 1616.53 1894.39 1622.24 1906.85 1628.29L1916.97 1633.14L1918.87 1634.09L1928.21 1638.67C2011.84 1679.84 2122.62 1666.17 2181.26 1604.16C2196.47 1588.89 2209.64 1571.71 2220.44 1553.05C2230.64 1533.68 2230.12 1522.87 2218.71 1517.51C2216.2 1516.3 2213.52 1514.74 2209.88 1512.49L2205.39 1509.55L2204.78 1509.21L2200.89 1506.7C2190.17 1500.04 2182.56 1496.84 2175.9 1496.58C2170.79 1496.41 2166.38 1498.14 2162.06 1502.46C2158.13 1506.37 2154.6 1510.66 2151.51 1515.26L2151.08 1515.95L2148.91 1519.32L2147.88 1520.88L2144.68 1525.81C2142.15 1530.11 2138.76 1533.84 2134.73 1536.77C2130.7 1539.7 2126.11 1541.77 2121.24 1542.85C2104.38 1546.83 2089.24 1542.5 2075.4 1531.35C2065.54 1523.39 2057.85 1514.05 2045.39 1496.32C2042.72 1492.56 2040.04 1488.82 2037.35 1485.08C2026.54 1469.94 2019.19 1462.25 2012.18 1459.13C1986.24 1447.8 1974.48 1446.94 1957.09 1450.92L1955.62 1451.26L1954.15 1451.61L1951.13 1452.21C1926.05 1457.4 1904.43 1448.06 1857.46 1407.24C1855.35 1405.29 1854.09 1402.59 1853.93 1399.72C1853.78 1396.84 1854.75 1394.02 1856.64 1391.85C1858.53 1389.68 1861.19 1388.33 1864.05 1388.09C1866.92 1387.85 1869.77 1388.73 1871.99 1390.55C1895.6 1411.05 1912.3 1422.72 1924.4 1428C1931.27 1431.48 1939.16 1432.37 1946.63 1430.51C1947.96 1430.24 1949.29 1429.95 1950.61 1429.64L1952.08 1429.3C1973.96 1424.19 1990.74 1425.49 2021.09 1438.81C2033.03 1444 2042.37 1453.86 2055.43 1472.1L2059.49 1477.81L2063.21 1483L2063.38 1483.43L2063.55 1483.52C2085.87 1515.35 2098.41 1525.46 2116.14 1521.31C2120.72 1520.19 2122.8 1518.46 2126.34 1513.36C2126.95 1512.49 2131.79 1504.71 2133.69 1502.03C2137.5 1496.58 2141.48 1491.65 2146.32 1486.81C2150.21 1482.68 2154.94 1479.43 2160.19 1477.29C2165.44 1475.14 2171.09 1474.14 2176.76 1474.35C2188.26 1474.79 2198.9 1479.28 2212.65 1487.84L2221.73 1493.73C2224.92 1495.87 2228.27 1497.75 2231.77 1499.35C2245.26 1504.8 2255.46 1502.37 2259.79 1491.04C2283.66 1428.43 2283.57 1371.26 2262.21 1322.06C2242.58 1276.91 2205.21 1239.29 2155.4 1212.91C2057.24 1161.02 1927.08 1160.76 1833.42 1215.08ZM767.427 1379.48L766.562 1379.74C747.795 1385.79 726.434 1392.02 701.699 1398.77L690.457 1401.88C690.889 1403.35 690.975 1404.91 690.716 1406.46L659.149 1617.05L663.474 1615.93C685.514 1609.4 706.908 1600.86 727.385 1590.41C731.737 1588.15 735.953 1585.64 740.012 1582.89C740.617 1581.16 742.001 1576.49 743.384 1569.92L743.471 1569.05C745.201 1560.58 747.19 1549.25 749.179 1535.41C751.514 1519.84 753.935 1501.25 756.443 1480.32C760.472 1446.75 764.133 1413.13 767.427 1379.48ZM668.057 1408.02L643.842 1414.68C630.846 1418.21 617.901 1421.93 605.011 1425.84C605.011 1426.7 605.011 1427.57 604.838 1428.43L604.578 1429.64C600.124 1451.4 595.858 1473.19 591.779 1495.02C587.524 1515.35 584.263 1535.87 582.006 1556.51V1556.86L582.871 1558.42L583.131 1558.76C584.341 1560.92 586.244 1563.6 588.665 1566.72C593.681 1572.94 600.6 1580.55 608.297 1588.17C618.762 1598.54 629.399 1607.62 637.269 1613.25L668.057 1408.02ZM1801.68 1182.64V1183.16C1797.36 1221.82 1788.11 1262.3 1772.8 1304.85C1753.77 1357.34 1706.72 1419.87 1649.82 1448.15C1621.25 1460.84 1590.58 1468.11 1559.36 1469.6C1521.82 1471.15 1489.13 1462.85 1464.4 1442.61C1469.18 1460.8 1476.99 1478.04 1487.49 1493.64C1512.4 1530.83 1568.87 1559.19 1605.97 1557.81C1649.21 1556.08 1686.75 1533.59 1718.23 1495.02C1740.23 1467.69 1757.29 1436.72 1768.65 1403.52C1789.58 1339.35 1803.5 1246.12 1801.77 1186.19L1801.68 1182.73V1182.64ZM1422.71 1011.23L1423.06 1012.96C1435.17 1084.92 1430.41 1166.04 1397.29 1257.71C1378.26 1310.29 1331.3 1372.74 1274.39 1401.1C1252.77 1411.83 1208.15 1422.9 1169.58 1423.24C1127.8 1423.59 1092.78 1412.52 1068.56 1387.96L1067.7 1390.12C1077.21 1440.71 1115.26 1483.52 1167.41 1504.19C1225.36 1527.11 1288.75 1518.03 1334.93 1475.91L1335.19 1475.65C1381.03 1436.21 1410.86 1383.11 1429.11 1314.7C1443.38 1261.26 1449.61 1207.98 1454.88 1117.26C1457.39 1074.45 1445.37 1038.39 1422.71 1011.23ZM1586.43 1024.64C1584 1025.63 1581.58 1026.64 1579.16 1027.67L1575.7 1029.22C1531.6 1048.59 1492.5 1072.46 1485.33 1088.72L1485.15 1089.24L1484.2 1091.23C1484.81 1100.14 1484.89 1109.39 1484.29 1118.99C1483.42 1135.6 1482.39 1150.99 1481.26 1165.43C1509.97 1111.81 1555.98 1084.74 1603.46 1096.85C1662.1 1111.9 1687.78 1181.43 1669.62 1257.28L1669.02 1259.61C1649.56 1337.45 1591.18 1386.23 1536.18 1375.5C1500.72 1368.58 1473.65 1342.29 1461.8 1305.28C1458.44 1319.49 1454.54 1333.56 1450.13 1347.48C1449.26 1355.96 1451.34 1367.03 1455.84 1379.13C1458.64 1386.58 1462.05 1393.78 1466.04 1400.67C1484.89 1429.81 1516.81 1441.84 1558.06 1440.11C1587.46 1438.89 1620.33 1429.9 1636.76 1421.77C1685.88 1397.3 1728.43 1340.82 1745.04 1294.81C1774.18 1214.04 1780.06 1141.05 1770.98 1075.92C1760.59 1060.07 1747.64 1046.04 1732.67 1034.41C1698.59 1007.77 1632.35 1005.53 1586.34 1024.64H1586.43ZM1231.58 959.171C1208.96 963.871 1187.72 973.693 1169.49 987.883C1177.45 1008.73 1179.26 1028.01 1173.81 1044.62C1193.7 1034.58 1215.5 1031.82 1237.55 1037.44C1296.1 1052.49 1321.79 1122.02 1303.62 1197.87L1303.11 1200.2C1283.56 1278.04 1225.27 1326.81 1170.18 1316.09C1141.64 1310.47 1118.46 1292.31 1104.45 1266.1C1098.93 1296.75 1090.98 1326.91 1080.67 1356.3C1098.57 1382.42 1129.01 1394.1 1169.32 1393.75C1203.39 1393.49 1243.61 1383.46 1261.25 1374.72C1310.46 1350.25 1352.92 1293.78 1369.61 1247.77C1401.78 1158.43 1405.5 1080.42 1392.88 1011.67C1391.75 1005.7 1390.63 1000.16 1389.33 994.456L1389.07 993.505L1386.74 983.473C1386.48 982.435 1386.39 981.397 1386.39 980.446C1346.78 956.749 1292.73 948.274 1231.58 959.171ZM1489.82 1224.85C1473.22 1289.28 1499.86 1338.31 1541.8 1346.53C1579.94 1354.05 1625.34 1315.57 1641 1250.36C1655.79 1188.44 1636.33 1135.68 1596.2 1125.39C1553.3 1114.41 1508.76 1151.86 1489.82 1224.85ZM1123.91 1165.43C1107.22 1229.86 1133.86 1278.9 1175.8 1287.12C1214.03 1294.64 1259.43 1256.16 1275 1190.95C1289.87 1129.02 1270.33 1076.27 1230.2 1065.98C1187.3 1054.99 1142.85 1092.44 1123.83 1165.43H1123.91ZM1127.54 1086.13H1127.37C1125.47 1086.56 1123.48 1086.91 1121.14 1087.25L1120.02 1087.43C1114.83 1088.29 1111.11 1089.16 1108.52 1089.93L1108.17 1090.02L1109.04 1097.03C1109.9 1102.82 1110.51 1108.7 1111.03 1114.5C1115.7 1104.58 1121.23 1095.09 1127.54 1086.13ZM1701.1 529.002C1670.81 531.09 1640.74 535.572 1611.16 542.407C1551.66 555.812 1481.95 588.676 1410.52 634.079C1353.96 670.23 1299.65 712.52 1270.59 741.319C1230.2 781.447 1206.33 815.954 1213.42 833.856C1217.75 844.667 1240.75 854.353 1283.13 860.753C1319.62 866.288 1359.49 868.882 1446.41 872.341C1495.88 874.331 1519.92 875.368 1541.63 876.579L1544.91 876.752L1549.15 876.925L1551.23 877.098H1552.35L1554.43 877.271L1556.59 877.358L1569.04 878.136C1571.64 878.309 1573.37 878.482 1575.1 879.001C1576.57 879.433 1577.78 879.952 1579.25 880.903C1583.14 883.411 1586.17 887.476 1586.17 893.53C1586.17 899.151 1583.57 902.784 1580.11 905.292C1578.99 906.157 1577.86 906.848 1576.65 907.281C1573.22 908.499 1569.64 909.284 1566.02 909.616L1552.61 911.346L1551.75 911.519L1550.79 911.605L1547.51 912.037L1534.79 913.767C1525.83 915.029 1516.94 916.761 1508.16 918.956C1505.91 955.712 1501.15 998.607 1495.88 1030L1495.7 1030.87H1496.05C1503.66 1027.67 1513.09 1023.6 1523.9 1018.67L1525.8 1017.81C1536.69 1012.78 1547.53 1007.64 1558.32 1002.41L1561.09 1001.12C1579.25 992.208 1597.24 983.213 1610.21 976.295C1716.32 920.34 1797.88 833.078 1791.3 782.572C1785.68 740.887 1748.06 721.687 1683.37 719.785C1659.76 719.006 1635.2 720.649 1606.06 724.109L1592.13 725.839L1590.92 726.011H1590.32L1589.11 726.184C1580.86 727.269 1572.58 728.135 1564.29 728.779C1562.28 728.845 1560.27 728.641 1558.32 728.174C1554.99 727.497 1551.99 725.722 1549.79 723.134C1547.6 720.546 1546.34 717.295 1546.21 713.904C1546.04 709.407 1547.25 706.639 1549.41 703.526L1552.35 700.066L1559.36 693.494C1563.94 689.429 1570.08 684.24 1579.07 676.889L1581.67 674.813L1596.28 662.879L1597.93 661.581L1598.36 661.235L1599.23 660.543L1612.72 649.56C1630.76 634.832 1648.63 619.899 1666.34 604.762C1686.39 587.98 1705.39 569.987 1723.24 550.882C1728.85 544.868 1733.78 538.256 1737.94 531.164L1738.12 530.905L1737.69 530.818L1734.23 529.953L1733.19 529.867C1722.58 528.504 1711.86 528.214 1701.19 529.002H1701.1ZM721.937 649.906L711.559 700.499C754.867 704.181 797.659 712.473 839.208 725.233L849.24 657.776L759.297 652.241H758.778L721.937 649.992V649.906ZM587.282 264.017V264.276C584.35 283.958 581.468 303.648 578.633 323.344C572.32 367.451 566.353 410.693 561.077 450.562C555.508 491.424 550.52 532.364 546.116 573.368C544.548 587.744 543.423 602.165 542.743 616.61V617.042H543.781C579.239 618.945 635.28 622.318 756.098 629.755L760.162 630.015H760.681C936.848 640.825 996.781 644.371 1008.37 644.371C1010.1 644.371 1017.88 642.468 1028.17 639.182C1052.39 631.516 1076.16 622.479 1099.35 612.113C1103.85 609.951 1107.39 608.048 1109.73 606.578L1109.99 606.318H1110.16V606.232C1111.23 600.42 1112.24 594.596 1113.19 588.762L1113.53 587.033C1116.65 568.179 1120.19 544.137 1124 515.597L1124.26 513.608C1133.68 441.258 1142.33 368.81 1150.2 296.275C1098.31 292.729 1049.88 289.529 1001.8 286.589L993.235 286.07C938.763 282.751 884.278 279.637 829.781 276.73L729.201 271.454L726.434 271.281L722.455 271.108L719.688 270.935L716.661 270.762L712.25 270.589L709.223 270.416L702.737 270.071L691.494 269.465L688.727 269.292L684.922 269.119L682.414 268.946L587.282 264.017ZM565.142 261.682L438.876 324.382C426.941 395.904 419.677 452.637 419.677 481.782C419.677 497.436 438.79 550.277 451.676 563.077C460.756 572.244 490.507 592.308 520.862 608.74C521.603 596.177 522.641 583.633 523.976 571.12C528.431 529.887 533.447 488.717 539.024 447.621C547.308 385.579 556.043 323.597 565.228 261.682H565.142ZM908.568 333.463C910.557 333.636 912.373 334.155 914.189 335.02C916.139 335.874 917.83 337.227 919.09 338.943C920.35 340.658 921.136 342.676 921.367 344.792C922.492 355.776 916.351 366.327 896.72 394.088L895.682 395.645C887.206 407.579 883.574 412.768 880.72 417.438L880.288 418.13L878.645 420.725C876.954 423.476 875.507 426.37 874.32 429.373H874.234V429.546L874.753 430.411L875.012 431.103C878.472 438.021 885.304 446.843 901.909 467.512L904.503 470.799C927.767 499.857 936.675 513.954 935.983 527.878C935.724 533.586 933.389 535.834 928.892 538.515C926.942 539.631 924.92 540.613 922.838 541.456C918.686 543.185 912.806 545.434 905.541 547.856C871.75 558.674 837.464 567.88 802.799 575.444C795.188 577 788.961 578.038 784.378 578.557C781.61 578.817 779.362 578.903 777.372 578.817C772.356 578.471 768.638 577.173 765.957 571.898C763.189 566.536 764.4 562.298 767.427 556.677C768.984 553.909 771.146 550.709 774.086 546.818C776.421 543.618 779.275 540.072 783.08 535.315L783.772 534.451L784.205 533.845L787.923 529.348L788.615 528.483L793.285 522.775L796.485 518.711C802.188 511.815 807.529 504.627 812.485 497.176C813.955 494.928 815.079 492.938 815.858 491.295L816.117 490.776H816.031C814.238 489.488 812.391 488.276 810.496 487.144L809.804 486.712L808.074 485.674L807.642 485.414L797.869 479.62L797.004 479.101L796.139 478.582L794.669 477.717L784.032 471.404C774.794 465.96 765.976 459.831 757.654 453.07C750.47 447.762 744.925 440.539 741.655 432.227C739.752 426.346 741.655 422.541 745.633 417.352C747.622 414.757 750.476 411.731 754.108 408.271C764.873 398.037 776.16 388.367 787.923 379.299L789.913 377.743L792.939 375.407L793.891 374.543L795.88 373.072L796.572 372.553L797.955 371.429C807.652 363.835 817.514 356.453 827.533 349.289C833.068 345.571 851.748 340.728 872.677 336.922C881.174 335.326 889.747 334.171 898.363 333.463C902.428 333.117 905.8 333.117 908.481 333.463H908.568ZM895.336 355.949H894.644C886.049 356.993 877.506 358.436 869.045 360.273L867.315 360.619C858.073 362.275 848.968 364.617 840.073 367.624C833.76 371.948 821.047 381.461 808.334 391.493L807.036 392.531L806.344 393.05L805.047 394.088L804.355 394.607L803.058 395.645L793.372 403.428C783.56 411.435 774.124 419.891 765.092 428.768L764.832 429.027L765.092 429.287C767.008 431.571 769.12 433.684 771.405 435.6L772.01 436.119C779.469 442.139 787.36 447.602 795.62 452.464L807.123 459.383L809.458 460.68L819.317 466.561L820.355 467.166L821.393 467.772C833.587 475.296 837.565 478.409 838.949 485.068C841.111 496.138 833.76 507.814 813.868 532.634L810.582 536.699L805.739 542.666L804.788 543.791C802.043 547.158 799.304 550.531 796.572 553.909L796.485 554.082L797.35 553.909L798.388 553.736C832.158 546.362 865.55 537.357 898.449 526.754C904.244 524.851 908.914 523.208 912.373 521.738H912.633V521.478C909.692 514.386 901.736 502.884 887.985 485.674L887.12 484.636L884.612 481.436C862.991 454.626 857.11 446.583 852.873 435.946C849.846 428.335 852.613 420.984 859.618 409.395L861.348 406.455L861.867 405.677L862.126 405.331L862.559 404.639C865.586 399.796 869.477 394.347 877.607 382.845L878.645 381.375C884.495 373.265 889.978 364.896 895.077 356.295L895.336 355.949ZM534.008 172.258L533.403 172.604C520.967 179.604 508.599 186.725 496.301 193.965C484.626 200.884 474.94 206.851 467.762 211.521C464.557 213.611 461.441 215.832 458.421 218.18L458.248 218.353L458.162 218.699L457.124 223.715L456.951 224.494L452.713 246.288C449.773 262.114 446.66 279.497 443.546 297.313L558.31 240.32C548.773 218.24 540.684 195.562 534.094 172.431V172.258H534.008ZM555.456 166.463L555.629 166.982C562.915 192.137 572.079 216.71 583.044 240.493L583.131 240.753V240.926L583.563 241.531C601.984 242.569 647.215 244.99 694.781 247.412L697.808 247.585L703.861 247.931L713.634 248.363C775.386 251.658 837.135 255.002 898.882 258.395L998.078 264.19L1008.46 264.795C1047.98 267.217 1087.85 269.811 1129.79 272.579C1109.16 255.354 1087.83 238.967 1065.88 223.456C1059.86 219.219 1053.69 215.209 1047.37 211.435L1046.86 211.262L953.799 199.241C940.134 226.05 880.461 237.726 816.549 231.239C786.367 228.316 756.737 221.214 728.509 210.137C705.159 200.451 688.986 188.776 682.846 174.852C676.275 174.37 669.702 173.909 663.128 173.468C627.25 170.939 591.359 168.604 555.456 166.463ZM735.601 151.675C723.493 154.01 713.807 157.037 707.58 160.323C705.767 161.186 704.079 162.292 702.564 163.609L702.391 163.696L702.478 164.128C706.542 181.425 758.692 202.613 816.982 208.927L818.798 209.1C847.092 212.301 875.718 210.87 903.552 204.862C920.589 200.624 930.621 194.916 933.562 189.987C932.971 188.016 932.941 185.92 933.475 183.933C930.535 178.744 920.849 171.566 905.541 165.08C880.245 155.081 853.549 149.071 826.409 147.264C796.079 144.841 765.563 146.294 735.601 151.588V151.675Z" fill="#564341"/>
</g>
<path d="M1294.23 1726.5C1298.4 1727.27 1302.4 1724.5 1303.16 1720.33C1303.93 1716.16 1301.16 1712.16 1296.99 1711.4L1294.23 1726.5ZM1198.44 1817.93C1200.55 1821.61 1205.24 1822.89 1208.92 1820.78C1212.6 1818.67 1213.88 1813.98 1211.77 1810.3L1198.44 1817.93ZM1235.79 1842.71C1232.93 1839.57 1228.08 1839.34 1224.94 1842.19C1221.8 1845.04 1221.57 1849.9 1224.42 1853.04L1235.79 1842.71ZM1488.43 1939.84C1491.93 1937.45 1492.83 1932.67 1490.44 1929.17C1488.05 1925.66 1483.27 1924.76 1479.77 1927.16L1488.43 1939.84ZM1296.99 1711.4C1273.23 1707.06 1251.11 1706.86 1232.72 1711.3C1214.29 1715.75 1199.06 1725.03 1190.41 1740.04L1203.71 1747.71C1209.66 1737.39 1220.65 1730.01 1236.32 1726.22C1252.03 1722.43 1271.88 1722.43 1294.23 1726.5L1296.99 1711.4ZM1190.41 1740.04C1177.56 1762.34 1182.83 1790.65 1198.44 1817.93L1211.77 1810.3C1197.24 1784.92 1194.9 1763 1203.71 1747.71L1190.41 1740.04ZM1224.42 1853.04C1244.08 1874.68 1270.01 1895.56 1300.43 1913.15L1308.12 1899.86C1278.93 1882.98 1254.28 1863.07 1235.79 1842.71L1224.42 1853.04ZM1300.43 1913.15C1336.67 1934.11 1373.79 1947.21 1406.59 1951.98C1439.11 1956.7 1468.61 1953.37 1488.43 1939.84L1479.77 1927.16C1464.56 1937.54 1439.67 1941.26 1408.8 1936.78C1378.2 1932.34 1342.92 1919.99 1308.12 1899.86L1300.43 1913.15ZM1524.42 1920.18C1524.42 1905.37 1512.42 1893.33 1497.6 1893.33V1908.69C1503.92 1908.69 1509.07 1913.82 1509.07 1920.18H1524.42ZM1497.6 1893.33C1482.77 1893.33 1470.78 1905.37 1470.78 1920.18H1486.13C1486.13 1913.82 1491.28 1908.69 1497.6 1908.69V1893.33ZM1470.78 1920.18C1470.78 1935 1482.77 1947.04 1497.6 1947.04V1931.68C1491.28 1931.68 1486.13 1926.54 1486.13 1920.18H1470.78ZM1497.6 1947.04C1512.42 1947.04 1524.42 1935 1524.42 1920.18H1509.07C1509.07 1926.54 1503.92 1931.68 1497.6 1931.68V1947.04Z" fill="#564341"/>
<path d="M1465.25 1836.9C1462.51 1840.13 1462.92 1844.98 1466.16 1847.72C1469.4 1850.45 1474.24 1850.05 1476.98 1846.81L1465.25 1836.9ZM1435.48 1708.33C1431.24 1708.27 1427.75 1711.66 1427.7 1715.9C1427.64 1720.14 1431.04 1723.63 1435.28 1723.68L1435.48 1708.33ZM1394.67 1728.11C1398.82 1727.22 1401.45 1723.14 1400.57 1719C1399.68 1714.85 1395.59 1712.21 1391.45 1713.1L1394.67 1728.11ZM1183.98 1903.11C1184.6 1907.3 1188.5 1910.21 1192.69 1909.59C1196.89 1908.98 1199.79 1905.08 1199.18 1900.88L1183.98 1903.11ZM1476.98 1846.81C1492.54 1828.4 1503.72 1809.36 1509.04 1791.24C1514.36 1773.08 1513.93 1755.27 1505.3 1740.3L1492 1747.97C1497.93 1758.27 1498.83 1771.46 1494.3 1786.91C1489.76 1802.4 1479.89 1819.58 1465.25 1836.9L1476.98 1846.81ZM1505.3 1740.3C1492.66 1718.36 1466.19 1708.73 1435.48 1708.33L1435.28 1723.68C1463.74 1724.05 1483.33 1732.94 1492 1747.97L1505.3 1740.3ZM1391.45 1713.1C1362.66 1719.28 1331.31 1731.39 1300.58 1749.16L1308.26 1762.46C1337.75 1745.41 1367.6 1733.92 1394.67 1728.11L1391.45 1713.1ZM1300.58 1749.16C1263.27 1770.74 1232.69 1797.28 1212.14 1824.14C1191.78 1850.75 1180.42 1878.82 1183.98 1903.11L1199.18 1900.88C1196.5 1882.63 1204.99 1858.75 1224.33 1833.47C1243.48 1808.45 1272.43 1783.18 1308.26 1762.46L1300.58 1749.16Z" fill="#564341"/>
<path d="M1284.37 1930.09C1282.94 1926.1 1278.55 1924.02 1274.55 1925.44C1270.56 1926.87 1268.48 1931.27 1269.91 1935.26L1284.37 1930.09ZM1410.12 1969.32C1412.3 1965.68 1411.13 1960.96 1407.49 1958.78C1403.85 1956.6 1399.14 1957.78 1396.96 1961.41L1410.12 1969.32ZM1414.42 1921.34C1413.15 1925.39 1415.41 1929.7 1419.46 1930.96C1423.5 1932.23 1427.81 1929.97 1429.07 1925.92L1414.42 1921.34ZM1369.99 1654.1C1366.12 1652.38 1361.58 1654.13 1359.86 1658C1358.13 1661.88 1359.88 1666.41 1363.75 1668.14L1369.99 1654.1ZM1269.91 1935.26C1278.04 1958.01 1288.92 1977.27 1301.94 1990.98C1314.99 2004.71 1330.63 2013.27 1347.93 2013.27V1997.92C1336.05 1997.92 1324.18 1992.09 1313.08 1980.4C1301.95 1968.69 1292.02 1951.49 1284.37 1930.09L1269.91 1935.26ZM1347.93 2013.27C1373.04 2013.27 1394.46 1995.41 1410.12 1969.32L1396.96 1961.41C1382.46 1985.56 1365.11 1997.92 1347.93 1997.92V2013.27ZM1429.07 1925.92C1437.69 1898.34 1442.63 1865.91 1442.63 1831.29H1427.27C1427.27 1864.5 1422.53 1895.38 1414.42 1921.34L1429.07 1925.92ZM1442.63 1831.29C1442.63 1788.83 1435.21 1749.62 1422.63 1718.6C1410.17 1687.86 1392.12 1663.95 1369.99 1654.1L1363.75 1668.14C1380.57 1675.62 1396.56 1695.17 1408.4 1724.37C1420.13 1753.3 1427.27 1790.51 1427.27 1831.29H1442.63Z" fill="#564341"/>
<path d="M1284.37 1930.09C1282.94 1926.1 1278.55 1924.02 1274.55 1925.44C1270.56 1926.87 1268.48 1931.27 1269.91 1935.26L1284.37 1930.09ZM1410.12 1969.32C1412.3 1965.68 1411.13 1960.96 1407.49 1958.78C1403.85 1956.6 1399.14 1957.78 1396.96 1961.41L1410.12 1969.32ZM1414.42 1921.34C1413.15 1925.39 1415.41 1929.7 1419.46 1930.96C1423.5 1932.23 1427.81 1929.97 1429.07 1925.92L1414.42 1921.34ZM1369.99 1654.1C1366.12 1652.38 1361.58 1654.13 1359.86 1658C1358.13 1661.88 1359.88 1666.41 1363.75 1668.14L1369.99 1654.1ZM1269.91 1935.26C1278.04 1958.01 1288.92 1977.27 1301.94 1990.98C1314.99 2004.71 1330.63 2013.27 1347.93 2013.27V1997.92C1336.05 1997.92 1324.18 1992.09 1313.08 1980.4C1301.95 1968.69 1292.02 1951.49 1284.37 1930.09L1269.91 1935.26ZM1347.93 2013.27C1373.04 2013.27 1394.46 1995.41 1410.12 1969.32L1396.96 1961.41C1382.46 1985.56 1365.11 1997.92 1347.93 1997.92V2013.27ZM1429.07 1925.92C1437.69 1898.34 1442.63 1865.91 1442.63 1831.29H1427.27C1427.27 1864.5 1422.53 1895.38 1414.42 1921.34L1429.07 1925.92ZM1442.63 1831.29C1442.63 1788.83 1435.21 1749.62 1422.63 1718.6C1410.17 1687.86 1392.12 1663.95 1369.99 1654.1L1363.75 1668.14C1380.57 1675.62 1396.56 1695.17 1408.4 1724.37C1420.13 1753.3 1427.27 1790.51 1427.27 1831.29H1442.63Z" fill="black" fill-opacity="0.2"/>
<path fill-rule="evenodd" clip-rule="evenodd" d="M1516.74 1920.18C1516.74 1909.6 1508.17 1901.01 1497.6 1901.01C1487.03 1901.01 1478.46 1909.6 1478.46 1920.18C1478.46 1930.77 1487.03 1939.36 1497.6 1939.36C1508.17 1939.36 1516.74 1930.77 1516.74 1920.18Z" fill="#564341" stroke="#FFE768" stroke-width="3.6" stroke-linecap="round"/>
<path fill-rule="evenodd" clip-rule="evenodd" d="M1197.91 1939.36C1208.48 1939.36 1217.06 1930.77 1217.06 1920.18C1217.06 1909.6 1208.48 1901.01 1197.91 1901.01C1187.34 1901.01 1178.77 1909.6 1178.77 1920.18C1178.77 1930.77 1187.34 1939.36 1197.91 1939.36Z" fill="#564341" stroke="#FFE768" stroke-width="3.6" stroke-linecap="round"/>
<path d="M1347.93 1676.15C1358.5 1676.15 1367.07 1667.57 1367.07 1656.98C1367.07 1646.39 1358.5 1637.8 1347.93 1637.8C1337.36 1637.8 1328.79 1646.39 1328.79 1656.98C1328.79 1667.57 1337.36 1676.15 1347.93 1676.15Z" fill="#564341" stroke="#FFE768" stroke-width="3.6" stroke-linecap="round"/>
<path fill-rule="evenodd" clip-rule="evenodd" d="M1351.63 1848.43C1342.17 1850.47 1332.86 1844.46 1330.82 1834.99C1328.78 1825.52 1334.78 1816.2 1344.23 1814.15C1353.68 1812.1 1363 1818.12 1365.04 1827.58C1367.09 1837.05 1361.08 1846.38 1351.63 1848.43Z" fill="#564341"/>
</g>
<defs>
<filter id="filter0_d_12_14" x="-4" y="0" width="2508" height="2353" filterUnits="userSpaceOnUse" color-interpolation-filters="sRGB">
<feFlood flood-opacity="0" result="BackgroundImageFix"/>
<feColorMatrix in="SourceAlpha" type="matrix" values="0 0 0 0 0 0 0 0 0 0 0 0 0 0 0 0 0 0 127 0" result="hardAlpha"/>
<feOffset dy="4"/>
<feGaussianBlur stdDeviation="2"/>
<feComposite in2="hardAlpha" operator="out"/>
<feColorMatrix type="matrix" values="0 0 0 0 0 0 0 0 0 0 0 0 0 0 0 0 0 0 0.25 0"/>
<feBlend mode="normal" in2="BackgroundImageFix" result="effect1_dropShadow_12_14"/>
<feBlend mode="normal" in="SourceGraphic" in2="effect1_dropShadow_12_14" result="shape"/>
</filter>
<linearGradient id="paint0_linear_12_14" x1="905.454" y1="1433.88" x2="1371.43" y2="2159.91" gradientUnits="userSpaceOnUse">
<stop stop-color="#FFBC9C"/>
<stop offset="0.7" stop-color="#FFBC9C"/>
<stop offset="1" stop-color="#FFA67A"/>
</linearGradient>
<linearGradient id="paint1_linear_12_14" x1="673.938" y1="1717.11" x2="631.734" y2="1886.97" gradientUnits="userSpaceOnUse">
<stop stop-color="#F28773"/>
<stop offset="0.3" stop-color="#F28773"/>
<stop offset="1" stop-color="#F6A66A"/>
</linearGradient>
<linearGradient id="paint2_linear_12_14" x1="741.222" y1="1798.67" x2="689.592" y2="2000.26" gradientUnits="userSpaceOnUse">
<stop stop-color="#F28773"/>
<stop offset="0.3" stop-color="#F28773"/>
<stop offset="1" stop-color="#F6A66A"/>
</linearGradient>
<linearGradient id="paint3_linear_12_14" x1="882.45" y1="1880.65" x2="801.847" y2="2180.23" gradientUnits="userSpaceOnUse">
<stop stop-color="#F28773"/>
<stop offset="0.3" stop-color="#F28773"/>
<stop offset="1" stop-color="#F6A66A"/>
</linearGradient>
<linearGradient id="paint4_linear_12_14" x1="1726.7" y1="1998.96" x2="1774.18" y2="2160.77" gradientUnits="userSpaceOnUse">
<stop stop-color="#F57A55"/>
<stop offset="0.4" stop-color="#F28773"/>
<stop offset="1" stop-color="#FA9F6E"/>
</linearGradient>
<linearGradient id="paint5_linear_12_14" x1="1806.35" y1="1908.93" x2="1877.79" y2="2058.12" gradientUnits="userSpaceOnUse">
<stop stop-color="#F57A55"/>
<stop offset="0.4" stop-color="#F28773"/>
<stop offset="1" stop-color="#FA9F6E"/>
</linearGradient>
<linearGradient id="paint6_linear_12_14" x1="1871.04" y1="1846.41" x2="1929.16" y2="1952.69" gradientUnits="userSpaceOnUse">
<stop stop-color="#F57A55"/>
<stop offset="0.4" stop-color="#F28773"/>
<stop offset="1" stop-color="#FA9F6E"/>
</linearGradient>
<linearGradient id="paint7_linear_12_14" x1="1500.72" y1="515.684" x2="1500.72" y2="1048.68" gradientUnits="userSpaceOnUse">
<stop stop-color="#FFE768"/>
<stop offset="0.4" stop-color="#FFE768"/>
<stop offset="0.7" stop-color="#FFBD4A"/>
<stop offset="1" stop-color="#FFBD4A"/>
</linearGradient>
<linearGradient id="paint8_linear_12_14" x1="1614.71" y1="997.829" x2="1861.01" y2="1403" gradientUnits="userSpaceOnUse">
<stop stop-color="#564341"/>
<stop offset="0.5" stop-color="#564341"/>
<stop offset="1" stop-color="#845750"/>
</linearGradient>
<linearGradient id="paint9_linear_12_14" x1="1231.15" y1="942.739" x2="1479.01" y2="1358.03" gradientUnits="userSpaceOnUse">
<stop stop-color="#564341"/>
<stop offset="0.5" stop-color="#564341"/>
<stop offset="1" stop-color="#845750"/>
</linearGradient>
<linearGradient id="paint10_linear_12_14" x1="1820.71" y1="1841.56" x2="1848.38" y2="1863.01" gradientUnits="userSpaceOnUse">
<stop stop-color="#C35C45"/>
<stop offset="1" stop-color="#B76455"/>
</linearGradient>
<linearGradient id="paint11_linear_12_14" x1="1752.73" y1="1919.74" x2="1786.55" y2="1963.85" gradientUnits="userSpaceOnUse">
<stop stop-color="#C35C45"/>
<stop offset="1" stop-color="#B76455"/>
</linearGradient>
<linearGradient id="paint12_linear_12_14" x1="1112.24" y1="1976.91" x2="977.668" y2="2204.27" gradientUnits="userSpaceOnUse">
<stop stop-color="#AA6160"/>
<stop offset="1" stop-color="#B36F5F"/>
</linearGradient>
<linearGradient id="paint13_linear_12_14" x1="1640.48" y1="2006.05" x2="1674.98" y2="2082.94" gradientUnits="userSpaceOnUse">
<stop stop-color="#C35C45"/>
<stop offset="1" stop-color="#B76455"/>
</linearGradient>
<linearGradient id="paint14_linear_12_14" x1="889.282" y1="1855.92" x2="791.123" y2="2029.92" gradientUnits="userSpaceOnUse">
<stop stop-color="#AA6160"/>
<stop offset="1" stop-color="#B36F5F"/>
</linearGradient>
<linearGradient id="paint15_linear_12_14" x1="793.199" y1="1762" x2="712.164" y2="1910.06" gradientUnits="userSpaceOnUse">
<stop stop-color="#AA6160"/>
<stop offset="1" stop-color="#B36F5F"/>
</linearGradient>
<linearGradient id="paint16_linear_12_14" x1="2208.67" y1="1256.33" x2="1871.91" y2="1597.68" gradientUnits="userSpaceOnUse">
<stop stop-color="#FFCB87"/>
<stop offset="0.1" stop-color="#FFCB87"/>
<stop offset="0.4" stop-color="#FFBC9C"/>
<stop offset="1" stop-color="#FFBC9C"/>
</linearGradient>
<linearGradient id="paint17_linear_12_14" x1="2173.82" y1="1166.99" x2="1753.25" y2="1620.08" gradientUnits="userSpaceOnUse">
<stop stop-color="#FBC38C"/>
<stop offset="0.3" stop-color="#F19675"/>
<stop offset="0.7" stop-color="#F0876A"/>
<stop offset="1" stop-color="#ED8870"/>
</linearGradient>
<linearGradient id="paint18_linear_12_14" x1="1958.74" y1="1317.9" x2="1958.74" y2="1380" gradientUnits="userSpaceOnUse">
<stop stop-color="#FFFFFE"/>
<stop offset="1" stop-color="white"/>
</linearGradient>
<linearGradient id="paint19_linear_12_14" x1="2105.07" y1="1223.9" x2="2105.07" y2="1382.77" gradientUnits="userSpaceOnUse">
<stop stop-color="#FFFFFE"/>
<stop offset="1" stop-color="white"/>
</linearGradient>
<linearGradient id="paint20_linear_12_14" x1="387.418" y1="719.439" x2="677.916" y2="1720.4" gradientUnits="userSpaceOnUse">
<stop stop-color="#FFCB87"/>
<stop offset="0.2" stop-color="#FFCB87"/>
<stop offset="0.7" stop-color="#FFBC9C"/>
<stop offset="1" stop-color="#FFBC9C"/>
</linearGradient>
<linearGradient id="paint21_linear_12_14" x1="148.119" y1="1019.1" x2="671.344" y2="1534.72" gradientUnits="userSpaceOnUse">
<stop stop-color="#FFCB87"/>
<stop offset="0.3" stop-color="#F79E75"/>
<stop offset="0.5" stop-color="#EF876D"/>
<stop offset="1" stop-color="#ED8870"/>
</linearGradient>
<linearGradient id="paint22_linear_12_14" x1="638.134" y1="1112.51" x2="644.274" y2="1289.28" gradientUnits="userSpaceOnUse">
<stop stop-color="#FFFFFE"/>
<stop offset="1" stop-color="white"/>
</linearGradient>
<linearGradient id="paint23_linear_12_14" x1="456.086" y1="860.839" x2="467.762" y2="1195.88" gradientUnits="userSpaceOnUse">
<stop stop-color="#FFF9CE"/>
<stop offset="1" stop-color="white"/>
</linearGradient>
</defs>
</svg>
